<?xml version="1.0" encoding="utf-8"?>
<!-- Generator: Adobe Illustrator 24.0.2, SVG Export Plug-In . SVG Version: 6.00 Build 0)  -->
<svg version="1.1" id="Capa_1" xmlns="http://www.w3.org/2000/svg" xmlns:xlink="http://www.w3.org/1999/xlink" x="0px" y="0px"
	 viewBox="0 0 3334.9 2084.3" style="enable-background:new 0 0 3334.9 2084.3;" xml:space="preserve">
<path d="M1371.8,941.6c69-34.5,121.8-73.6,157.6-115.2c63.8-75.5,95.1-175.2,95.1-299.5c0-120.5-31.3-224-94.4-309.9
	C1425.2,76.3,1247.4,4,996.1,0.1H0.5v2032.2H929c104.8,0,201.2-9.1,291.1-27.3c89.9-18.2,167.3-52.7,232.5-102.2
	c58.6-43,106.8-96.4,145.9-159.5c61.2-95.7,91.8-203.8,91.8-324.3c0-116.6-26.7-216.2-80.1-297.6
	C1556,1039.3,1477.3,980,1371.8,941.6z M411.4,353H860c98.3,0,179.7,10.4,243.5,31.9c73.6,30.6,110.7,93.1,110.7,188.2
	c0,85.3-28,144.5-84,178.4c-56,33.9-128.9,50.1-218.1,50.1H411.4V353z M1120.4,1643.5c-49.5,24.1-119.2,35.8-209,35.8H411.4v-541.7
	h507.2c88.6,0.7,156.9,12.4,206.4,33.9c87.3,39.7,130.9,112,130.9,218.1C1255.9,1515.3,1210.9,1599.3,1120.4,1643.5z M3013.9,347.8
	H2131V95.2h882.9L3013.9,347.8L3013.9,347.8z M3320.6,1093.3c-18.2-117.9-58.6-221.4-121.8-310.6c-69-101.6-156.3-175.2-263.1-222
	c-106.1-46.9-225.3-70.3-358.1-70.3c-223.3,0-404.3,69.7-544.3,208.4s-209.7,338.6-209.7,599c0,278,77.5,478.6,232.5,601.6
	c155,123.1,333.4,184.9,536.5,184.9c245.5,0,436.9-72.9,573-218.8c87.3-91.8,136.7-183,147.8-271.5h-407
	c-23.4,44.3-50.8,78.1-82,103.5c-56.6,45.6-130.2,69-220.7,69c-85.9,0-158.9-18.9-220.1-56.6c-100.3-60.6-153-166-159.5-317.1
	h1110.2C3335.6,1262,3331,1161.7,3320.6,1093.3z M2233.9,1132.4c14.3-97.7,50.1-175.2,106.1-232.5c56-57.3,136.1-85.9,237.7-85.9
	c93.8,0,172.5,26.7,236.4,80.7c63.2,54.7,99,133.5,106.1,237.7H2233.9z"/>
</svg>
