<?xml version="1.0" encoding="utf-8"?>
<!-- Generator: Adobe Illustrator 24.0.2, SVG Export Plug-In . SVG Version: 6.00 Build 0)  -->
<svg version="1.1" id="Capa_1" xmlns="http://www.w3.org/2000/svg" xmlns:xlink="http://www.w3.org/1999/xlink" x="0px" y="0px"
	 viewBox="0 0 393.6 393.6" style="enable-background:new 0 0 393.6 393.6;" xml:space="preserve">
<style type="text/css">
	.st0{fill:#070101;}
</style>
<path class="st0" d="M215.3,0c8.1,5.1,17.6,8.8,24.1,15.5c18.6,18.9,15.8,49.8-5,66.3c-21.2,16.8-52.4,11.5-66.9-11.3
	C153.2,48,161,18.7,184.6,6c4-2.2,8.2-4,12.2-6C203,0,209.1,0,215.3,0z M93.2,52.2c22.6,0.2,41,18.8,40.7,41.2s-19.3,41-41.6,40.7
	c-22.6-0.3-40.5-18.8-40.3-41.5C52.2,69.6,70.2,52,93.2,52.2z M82.2,206.6c-0.2,19.2-17.6,36.3-36.6,36.1
	C26.3,242.4,9.3,225.1,9.5,206c0.2-19.3,17.5-36.3,36.6-36C65.4,170.2,82.4,187.5,82.2,206.6z M124.4,318.9
	c0.3,16.9-13.7,31.6-30.6,32.1c-17.2,0.5-31.7-13-32.4-30.1c-0.7-17.7,13.7-32.9,31.2-33C109.2,287.7,124.1,302.2,124.4,318.9z
	 M206.7,393.6c-13.9,0.4-26.8-11.6-27.7-25.7c-0.9-14.4,11.8-28.1,26.4-28.6c14.5-0.4,27.9,12.7,27.8,27.3
	C233.1,380.6,220.7,393.2,206.7,393.6z M318.9,341.7c-12.4-0.2-22.1-10.3-21.9-22.7c0.3-12.2,10.7-22.2,22.8-21.9
	c12.4,0.3,21.9,10.4,21.7,22.9C341.3,332.4,331.3,342,318.9,341.7z M366.7,188.4c9.2,0.3,17.4,8.8,17.4,18
	c-0.1,9.3-8.4,17.6-17.7,17.8c-9.7,0.1-18.7-9.2-18.2-18.8C348.8,196,357.5,188,366.7,188.4z M319.7,80.1c7.7,0.2,13.2,6.3,12.6,14
	c-0.6,6.9-6.4,12.2-13.3,12c-6.7-0.2-12.6-6.1-12.8-12.7C305.9,86,312.1,79.9,319.7,80.1z"/>
</svg>
