<?xml version="1.0" encoding="utf-8"?>
<!-- Generator: Adobe Illustrator 24.0.2, SVG Export Plug-In . SVG Version: 6.00 Build 0)  -->
<svg version="1.1" id="Capa_1" xmlns="http://www.w3.org/2000/svg" xmlns:xlink="http://www.w3.org/1999/xlink" x="0px" y="0px"
	 viewBox="0 0 393.6 393.6" style="enable-background:new 0 0 393.6 393.6;" xml:space="preserve">
<path d="M119.9,0c7.1,2.2,12.1,7.2,17.2,12.3C192.8,68,248.5,123.6,304.2,179.1c6.8,6.8,10.1,14.6,6.9,23.9
	c-1.2,3.5-3.5,6.9-6.1,9.5C247.4,270.3,189.6,328,131.7,385.6c-9.7,9.7-22.3,9.6-32.1,0.2c-4.6-4.4-9.3-8.9-13.4-13.7
	c-7-8.2-6.6-19.5,0.4-27.7c1.1-1.3,2.3-2.4,3.4-3.6c47-46.9,94-93.9,141.1-140.8c1.1-1.1,2.4-2,4.4-4.7c-1.4-0.7-3-1.2-4-2.2
	C184,145.7,136.6,98.4,89.1,51c-8.8-8.8-10.6-21-3.3-29.3C93.2,13.2,100.2,4,111.5,0C114.3,0,117.1,0,119.9,0z"/>
</svg>
